<?xml version="1.0" standalone="no"?>
<!DOCTYPE svg PUBLIC "-//W3C//DTD SVG 20010904//EN"
 "http://www.w3.org/TR/2001/REC-SVG-20010904/DTD/svg10.dtd">
<svg version="1.0" xmlns="http://www.w3.org/2000/svg"
 width="512.000000pt" height="512.000000pt" viewBox="0 0 512.000000 512.000000"
 preserveAspectRatio="xMidYMid meet">

<g transform="translate(0.000000,512.000000) scale(0.100000,-0.100000)"
fill="#000000" stroke="none">
<path d="M435 5101 c-206 -60 -367 -224 -420 -428 -23 -86 -23 -4140 0 -4226
54 -207 225 -378 432 -431 54 -14 281 -16 2113 -16 2278 0 2100 -5 2244 67 96
48 201 153 249 249 72 144 67 -34 67 2244 0 2278 5 2100 -67 2244 -48 95 -162
208 -256 254 -138 67 28 62 -2242 61 -1932 0 -2064 -2 -2120 -18z m1767 -1147
c36 -19 69 -68 75 -112 2 -20 -12 -135 -31 -255 -20 -120 -36 -223 -36 -228 0
-5 189 -9 479 -9 l479 0 5 28 c3 15 22 131 42 259 25 155 44 242 56 262 67
111 243 86 279 -39 8 -26 2 -84 -25 -250 -19 -118 -37 -225 -40 -237 l-5 -22
247 -3 c227 -3 251 -5 282 -23 49 -29 73 -67 78 -122 5 -59 -18 -108 -66 -140
-33 -23 -40 -23 -312 -23 -154 0 -279 -2 -279 -4 0 -2 -34 -212 -75 -467 -41
-255 -75 -470 -75 -476 0 -10 77 -13 354 -13 350 0 353 0 387 -23 48 -32 71
-81 66 -140 -5 -55 -29 -93 -78 -122 -32 -19 -57 -20 -409 -25 l-374 -5 -42
-255 c-22 -141 -48 -270 -57 -287 -50 -95 -200 -97 -264 -3 -30 43 -29 62 12
316 19 118 35 220 35 225 0 5 -189 9 -479 9 l-479 0 -11 -62 c-5 -35 -24 -152
-42 -260 -20 -127 -38 -208 -50 -228 -67 -110 -243 -85 -279 40 -7 25 -1 84
25 249 19 119 37 226 40 238 l5 22 -247 3 c-229 3 -251 5 -283 24 -104 60
-108 203 -8 264 31 19 51 20 311 20 152 0 277 2 277 5 0 2 34 212 75 466 41
255 75 469 75 476 0 10 -67 13 -350 13 -380 0 -385 1 -429 56 -57 73 -27 199
58 237 18 8 149 14 401 17 l374 5 42 258 c28 171 48 266 60 284 50 77 126 98
206 57z"/>
<path d="M2155 3028 c-2 -7 -36 -213 -75 -458 -39 -245 -74 -455 -77 -468 l-5
-22 483 2 484 3 71 444 c40 244 75 459 79 477 l6 34 -481 0 c-376 0 -482 -3
-485 -12z"/>
</g>
</svg>
