<?xml version="1.0" encoding="UTF-8" standalone="no" ?>
<!DOCTYPE svg PUBLIC "-//W3C//DTD SVG 1.1//EN" "http://www.w3.org/Graphics/SVG/1.1/DTD/svg11.dtd">
<svg xmlns="http://www.w3.org/2000/svg" xmlns:xlink="http://www.w3.org/1999/xlink" version="1.1" width="500" height="500" viewBox="0 0 500 500" xml:space="preserve">
<desc>Created with Fabric.js 5.2.4</desc>
<defs>
</defs>
<rect x="0" y="0" width="100%" height="100%" fill="transparent"></rect>
<g transform="matrix(1 0 0 1 250 250)" id="71e40951-0743-4362-937e-6d089e70a134"  >
<rect style="stroke: none; stroke-width: 1; stroke-dasharray: none; stroke-linecap: butt; stroke-dashoffset: 0; stroke-linejoin: miter; stroke-miterlimit: 4; fill: rgb(255,255,255); fill-rule: nonzero; opacity: 1; visibility: hidden;" vector-effect="non-scaling-stroke"  x="-250" y="-250" rx="0" ry="0" width="500" height="500" />
</g>
<g transform="matrix(Infinity NaN NaN Infinity 0 0)" id="d2174f67-e1a3-4ba5-ac13-591f0d606f6c"  >
</g>
<g transform="matrix(0.46 0 0 0.46 250 183.21)"  >
<path style="stroke: rgb(0,0,0); stroke-width: 0; stroke-dasharray: none; stroke-linecap: butt; stroke-dashoffset: 0; stroke-linejoin: miter; stroke-miterlimit: 4; fill: rgb(70,73,78); fill-rule: nonzero; opacity: 1;" vector-effect="non-scaling-stroke"  transform=" translate(-159.8, -256.05)" d="M 304.2 501.5 L 158.4 320.3 L 298.2 185 C 300.8 182.3 299.9 174.5 292.9 174.5 L 223.7 174.5 C 220.2 174.5 216.7 176.3 213.2 179.8 L 80.9 313.5 L 80.9 7.5 Q 80.9 0 73.4 0 L 21.5 0 Q 14 0 14 7.5 L 14 504.5 Q 14 512 21.5 512 L 73.4 512 Q 80.9 512 80.9 504.5 L 80.9 395.5 L 111.7 366.2 L 222.2 506.79999999999995 C 225.2 510.29999999999995 228.7 512.0999999999999 232.7 512.0999999999999 L 299.6 512.0999999999999 Q 304.85 512.0999999999999 305.6 509.0999999999999 z" stroke-linecap="round" />
</g>
<g transform="matrix(0 0 0 0 216.68 191.49)"  >
<g style=""   >
</g>
</g>
<g transform="matrix(0 0 0 0 216.68 191.49)"  >
<g style=""   >
</g>
</g>
<g transform="matrix(0 0 0 0 216.68 191.49)"  >
<g style=""   >
</g>
</g>
<g transform="matrix(0 0 0 0 216.68 191.49)"  >
<g style=""   >
</g>
</g>
<g transform="matrix(0 0 0 0 2913.1 -529.11)"  >
<g style=""   >
</g>
</g>
</svg>