<svg xmlns="http://www.w3.org/2000/svg" version="1.0" width="96.000000pt" height="96.000000pt" viewBox="0 0 96.000000 96.000000" preserveAspectRatio="xMidYMid meet">

<g transform="translate(0.000000,96.000000) scale(0.100000,-0.100000)" fill="#46494e" stroke="none">
<path d="M60 630 l0 -90 90 0 90 0 0 90 0 90 -90 0 -90 0 0 -90z m120 0 c0 -27 -3 -30 -30 -30 -27 0 -30 3 -30 30 0 27 3 30 30 30 27 0 30 -3 30 -30z" fill="#46494e"/>
<path d="M300 690 l0 -30 300 0 300 0 0 30 0 30 -300 0 -300 0 0 -30z" fill="#46494e"/>
<path d="M300 570 l0 -30 240 0 240 0 0 30 0 30 -240 0 -240 0 0 -30z" fill="#46494e"/>
<path d="M60 330 l0 -90 90 0 90 0 0 90 0 90 -90 0 -90 0 0 -90z m120 0 c0 -27 -3 -30 -30 -30 -27 0 -30 3 -30 30 0 27 3 30 30 30 27 0 30 -3 30 -30z" fill="#46494e"/>
<path d="M300 390 l0 -30 300 0 300 0 0 30 0 30 -300 0 -300 0 0 -30z" fill="#46494e"/>
<path d="M300 270 l0 -30 240 0 240 0 0 30 0 30 -240 0 -240 0 0 -30z" fill="#46494e"/>
</g>
</svg>